ply
format ascii 1.0
element vertex 36
property float x
property float y
property float z
property uchar red
property uchar green
property uchar blue
end_header
19.009598 6.5305424 5.8277054 255 0 0 
19.732204 7.88348 5.850479 255 0 0 
18.462688 6.691969 5.968973 255 0 0 
14.990326 5.615265 5.9487896 255 0 0 
19.969582 7.948784 5.981724 255 0 0 
18.187935 6.680443 5.959856 255 0 0 
15.544235 5.859747 5.934906 255 0 0 
17.18523 6.6072063 6.0333824 255 0 0 
14.885857 5.180191 5.9367275 255 0 0 
18.212448 7.2635174 5.9846478 255 0 0 
18.95924 7.490135 6.1005707 255 0 0 
15.125156 6.0935783 5.903513 255 0 0 
19.732956 6.8673134 6.021307 255 0 0 
18.44057 6.827013 5.953602 255 0 0 
12.145744 4.7815514 6.044283 255 0 0 
16.901455 6.712677 5.9992123 255 0 0 
12.693527 4.7881775 5.973831 255 0 0 
19.586575 7.6754875 5.934389 255 0 0 
16.277206 5.668312 5.9589787 255 0 0 
14.663696 5.5428047 5.9172535 255 0 0 
18.548744 6.9867687 5.9725876 255 0 0 
15.671028 6.3337307 5.8801937 255 0 0 
19.543282 6.959465 5.87759 255 0 0 
16.405804 6.0962963 5.940588 255 0 0 
15.617813 5.7789726 5.9756184 255 0 0 
17.010132 6.470257 6.020649 255 0 0 
18.490757 7.2001343 5.7656937 255 0 0 
16.006767 5.713251 6.038662 255 0 0 
17.75048 6.1978645 5.9242516 255 0 0 
12.791897 5.033329 6.0724487 255 0 0 
13.505318 5.404293 5.964651 255 0 0 
14.799999 5.413969 6.037424 255 0 0 
19.821056 7.8378963 5.693762 255 0 0 
9.68121 3.9540443 6.0457497 255 0 0 
13.58025 5.0727158 6.03677 255 0 0 
18.385468 7.029562 5.9363594 255 0 0 
